  0
SECTION
  2
HEADER
  9
$ACADVER
  1
AC1009
  9
$INSBASE
 10
0.0
 20
0.0
 30
0.0
  9
$EXTMIN
 10
458414.18945822038
 20
2706831.1519927331
 30
0.0
  9
$EXTMAX
 10
465205.47336752672
 20
2713847.8863404272
 30
0.0
  9
$LIMMIN
 10
0.0
 20
0.0
  9
$LIMMAX
 10
12.0
 20
9.0
  9
$ORTHOMODE
 70
     0
  9
$REGENMODE
 70
     1
  9
$FILLMODE
 70
     1
  9
$QTEXTMODE
 70
     0
  9
$MIRRTEXT
 70
     1
  9
$DRAGMODE
 70
     2
  9
$LTSCALE
 40
80.0
  9
$OSMODE
 70
  3071
  9
$ATTMODE
 70
     1
  9
$TEXTSIZE
 40
12.5
  9
$TRACEWID
 40
0.05
  9
$TEXTSTYLE
  7
COORD
  9
$CLAYER
  8
4102-Z4
  9
$CELTYPE
  6
BYLAYER
  9
$CECOLOR
 62
   256
  9
$DIMSCALE
 40
10.0
  9
$DIMASZ
 40
3.0
  9
$DIMEXO
 40
2.0
  9
$DIMDLI
 40
0.0
  9
$DIMRND
 40
0.0
  9
$DIMDLE
 40
0.0
  9
$DIMEXE
 40
2.0
  9
$DIMTP
 40
0.0
  9
$DIMTM
 40
0.0
  9
$DIMTXT
 40
2.0
  9
$DIMCEN
 40
20.0
  9
$DIMTSZ
 40
0.0
  9
$DIMTOL
 70
     0
  9
$DIMLIM
 70
     0
  9
$DIMTIH
 70
     0
  9
$DIMTOH
 70
     0
  9
$DIMSE1
 70
     0
  9
$DIMSE2
 70
     0
  9
$DIMTAD
 70
     1
  9
$DIMZIN
 70
     0
  9
$DIMBLK
  1

  9
$DIMASO
 70
     1
  9
$DIMSHO
 70
     1
  9
$DIMPOST
  1

  9
$DIMAPOST
  1

  9
$DIMALT
 70
     0
  9
$DIMALTD
 70
     2
  9
$DIMALTF
 40
25.399999999999999
  9
$DIMLFAC
 40
1.0
  9
$DIMTOFL
 70
     1
  9
$DIMTVP
 40
0.0
  9
$DIMTIX
 70
     0
  9
$DIMSOXD
 70
     0
  9
$DIMSAH
 70
     0
  9
$DIMBLK1
  1

  9
$DIMBLK2
  1

  9
$DIMSTYLE
  2
DIM10X
  9
$DIMCLRD
 70
     1
  9
$DIMCLRE
 70
     1
  9
$DIMCLRT
 70
     3
  9
$DIMTFAC
 40
1.0
  9
$DIMGAP
 40
1.0
  9
$LUNITS
 70
     2
  9
$LUPREC
 70
     2
  9
$SKETCHINC
 40
0.1
  9
$FILLETRAD
 40
0.0
  9
$AUNITS
 70
     0
  9
$AUPREC
 70
     2
  9
$MENU
  1
C:\r13\win\SUPPORT\acadiim
  9
$ELEVATION
 40
0.0
  9
$PELEVATION
 40
0.0
  9
$THICKNESS
 40
0.0
  9
$LIMCHECK
 70
     0
  9
$BLIPMODE
 70
     0
  9
$CHAMFERA
 40
7.6707167142498216
  9
$CHAMFERB
 40
24.10032081336249
  9
$SKPOLY
 70
     0
  9
$TDCREATE
 40
2451029.3421380781
  9
$TDUPDATE
 40
2452480.4888546299
  9
$TDINDWG
 40
2.2618331481
  9
$TDUSRTIMER
 40
2.2618331481
  9
$USRTIMER
 70
     1
  9
$ANGBASE
 50
0.0
  9
$ANGDIR
 70
     0
  9
$PDMODE
 70
     0
  9
$PDSIZE
 40
5.0
  9
$PLINEWID
 40
0.0
  9
$COORDS
 70
     1
  9
$SPLFRAME
 70
     0
  9
$SPLINETYPE
 70
     6
  9
$SPLINESEGS
 70
     8
  9
$ATTDIA
 70
     0
  9
$ATTREQ
 70
     1
  9
$HANDLING
 70
     1
  9
$HANDSEED
  5
BC
  9
$SURFTAB1
 70
     6
  9
$SURFTAB2
 70
     6
  9
$SURFTYPE
 70
     6
  9
$SURFU
 70
     6
  9
$SURFV
 70
     6
  9
$UCSNAME
  2

  9
$UCSORG
 10
0.0
 20
0.0
 30
0.0
  9
$UCSXDIR
 10
1.0
 20
0.0
 30
0.0
  9
$UCSYDIR
 10
0.0
 20
1.0
 30
0.0
  9
$PUCSNAME
  2

  9
$PUCSORG
 10
0.0
 20
0.0
 30
0.0
  9
$PUCSXDIR
 10
1.0
 20
0.0
 30
0.0
  9
$PUCSYDIR
 10
0.0
 20
1.0
 30
0.0
  9
$USERI1
 70
     0
  9
$USERI2
 70
     0
  9
$USERI3
 70
     0
  9
$USERI4
 70
     0
  9
$USERI5
 70
     0
  9
$USERR1
 40
0.0
  9
$USERR2
 40
0.0
  9
$USERR3
 40
0.0
  9
$USERR4
 40
0.0
  9
$USERR5
 40
0.0
  9
$WORLDVIEW
 70
     1
  9
$SHADEDGE
 70
     3
  9
$SHADEDIF
 70
    70
  9
$TILEMODE
 70
     1
  9
$MAXACTVP
 70
    16
  9
$PLIMCHECK
 70
     0
  9
$PEXTMIN
 10
1.0000000000000000E+020
 20
1.0000000000000000E+020
 30
1.0000000000000000E+020
  9
$PEXTMAX
 10
-1.0000000000000000E+020
 20
-1.0000000000000000E+020
 30
-1.0000000000000000E+020
  9
$PLIMMIN
 10
0.0
 20
0.0
  9
$PLIMMAX
 10
12.0
 20
9.0
  9
$UNITMODE
 70
     0
  9
$VISRETAIN
 70
     0
  9
$PLINEGEN
 70
     0
  9
$PSLTSCALE
 70
     1
  0
ENDSEC
  0
SECTION
  2
TABLES
  0
TABLE
  2
VPORT
 70
     1
  0
VPORT
  2
*ACTIVE
 70
     0
 10
0.0
 20
0.0
 11
1.0
 21
1.0
 12
-2059452.1687547141
 22
1823521.52695369
 13
0.0
 23
0.0
 14
1.0
 24
1.0
 15
0.0
 25
0.0
 16
0.0
 26
0.0
 36
1.0
 17
0.0
 27
0.0
 37
0.0
 40
6123.7333001280203
 41
1.6093333333333331
 42
50.0
 43
0.0
 44
0.0
 50
0.0
 51
58.115353047132842
 71
     0
 72
 20000
 73
     1
 74
     1
 75
     0
 76
     0
 77
     0
 78
     0
  0
ENDTAB
  0
TABLE
  2
LTYPE
 70
     3
  0
LTYPE
  2
CONTINUOUS
 70
     0
  3
Solid line
 72
    65
 73
     0
 40
0.0
  0
LTYPE
  2
HIDDEN
 70
     0
  3
__ __ __ __ __ __ __ __ __ __ __ __ __ __ __ __
 72
    65
 73
     2
 40
0.375
 49
0.25
 49
-0.125
  0
LTYPE
  2
DASHED
 70
     0
  3
__ __ __ __ __ __ __ __ __ __ __ __ __ __ __ __
 72
    65
 73
     2
 40
0.75
 49
0.5
 49
-0.25
  0
ENDTAB
  0
TABLE
  2
LAYER
 70
     5
  0
LAYER
  2
0
 70
     0
 62
    -7
  6
CONTINUOUS
  0
LAYER
  2
4102-Z4
 70
     0
 62
     1
  6
DASHED
  0
LAYER
  2
4101-Z4
 70
     0
 62
     1
  6
CONTINUOUS
  0
LAYER
  2
NEW
 70
     0
 62
     5
  6
CONTINUOUS
  0
LAYER
  2
BW-TOE
 70
     0
 62
     5
  6
HIDDEN
  0
ENDTAB
  0
TABLE
  2
STYLE
 70
     2
  0
STYLE
  2
STANDARD
 70
     0
 40
0.0
 41
1.0
 50
0.0
 71
     0
 42
4.0
  3
ROMANS.shx
  4

  0
STYLE
  2
COORD
 70
     0
 40
0.0
 41
0.9
 50
0.0
 71
     0
 42
12.5
  3
romans
  4

  0
ENDTAB
  0
TABLE
  2
VIEW
 70
     1
  0
VIEW
  2
1
 70
     0
 40
4159.1087611096445
 10
-2057419.6761484351
 20
1823769.698146973
 41
5880.9898065018942
 11
0.0
 21
0.0
 31
1.0
 12
0.0
 22
0.0
 32
0.0
 42
50.0
 43
0.0
 44
0.0
 50
58.115353047132842
 71
     0
  0
ENDTAB
  0
TABLE
  2
UCS
 70
     0
  0
ENDTAB
  0
TABLE
  2
APPID
 70
     2
  0
APPID
  2
ACAD
 70
     0
  0
APPID
  2
RAK
 70
     0
  0
ENDTAB
  0
TABLE
  2
DIMSTYLE
 70
     1
  0
DIMSTYLE
  2
DIM10X
 70
     0
  3

  4

  5

  6

  7

 40
10.0
 41
3.0
 42
2.0
 43
0.0
 44
2.0
 45
0.0
 46
0.0
 47
0.0
 48
0.0
140
2.0
141
20.0
142
0.0
143
25.399999999999999
144
1.0
145
0.0
146
1.0
147
1.0
 71
     0
 72
     0
 73
     0
 74
     0
 75
     0
 76
     0
 77
     1
 78
     0
170
     0
171
     2
172
     1
173
     0
174
     0
175
     0
176
     1
177
     1
178
     3
  0
ENDTAB
  0
ENDSEC
  0
SECTION
  2
BLOCKS
  0
BLOCK
  8
0
  2
$MODEL_SPACE
 70
     0
 10
0.0
 20
0.0
 30
0.0
  3
$MODEL_SPACE
  1

  0
ENDBLK
  5
D
  8
0
  0
BLOCK
 67
     1
  8
0
  2
$PAPER_SPACE
 70
     0
 10
0.0
 20
0.0
 30
0.0
  3
$PAPER_SPACE
  1

  0
ENDBLK
  5
15
 67
     1
  8
0
  0
ENDSEC
  0
SECTION
  2
ENTITIES
  0
LINE
  5
30
  8
4102-Z4
 62
     5
 10
461087.42000000319
 20
2709894.3900000001
 30
0.0
 11
461124.10099401552
 21
2709834.9645877401
 31
0.0
  0
LINE
  5
31
  8
4102-Z4
 62
     5
 10
461051.28000000259
 20
2709955.1700000009
 30
0.0
 11
461087.42000000319
 21
2709894.3900000001
 31
0.0
  0
LINE
  5
32
  8
4102-Z4
 62
     5
 10
461012.30000000208
 20
2710018.600000002
 30
0.0
 11
461051.28000000259
 21
2709955.1700000009
 31
0.0
  0
LINE
  5
33
  8
4102-Z4
 62
     5
 10
460966.0100000021
 20
2710094.580000001
 30
0.0
 11
461012.30000000208
 21
2710018.600000002
 31
0.0
  0
LINE
  5
34
  8
4102-Z4
 62
     5
 10
460933.65000000183
 20
2710148.6900000018
 30
0.0
 11
460966.0100000021
 21
2710094.580000001
 31
0.0
  0
LINE
  5
35
  8
4102-Z4
 62
     5
 10
460928.74337225448
 20
2710156.7264942611
 30
0.0
 11
460933.65000000183
 21
2710148.6900000018
 31
0.0
  0
LINE
  5
36
  8
4102-Z4
 62
     5
 10
460463.13000000222
 20
2710923.1100000008
 30
0.0
 11
460427.69619375421
 21
2710980.717850443
 31
0.0
  0
LINE
  5
37
  8
4102-Z4
 62
     5
 10
460495.46000000229
 20
2710870.0800000019
 30
0.0
 11
460463.13000000222
 21
2710923.1100000008
 31
0.0
  0
LINE
  5
38
  8
4102-Z4
 62
     5
 10
460524.11000000272
 20
2710823.640000002
 30
0.0
 11
460495.46000000229
 21
2710870.0800000019
 31
0.0
  0
LINE
  5
39
  8
4102-Z4
 62
     5
 10
460551.82000000362
 20
2710778.200000002
 30
0.0
 11
460524.11000000272
 21
2710823.640000002
 31
0.0
  0
LINE
  5
3A
  8
4102-Z4
 62
     5
 10
460597.11000000359
 20
2710704.8400000008
 30
0.0
 11
460551.82000000362
 21
2710778.200000002
 31
0.0
  0
LINE
  5
3B
  8
4102-Z4
 62
     5
 10
460634.23000000179
 20
2710644.8900000011
 30
0.0
 11
460597.11000000359
 21
2710704.8400000008
 31
0.0
  0
LINE
  5
3C
  8
4102-Z4
 62
     5
 10
460658.90000000183
 20
2710602.7400000021
 30
0.0
 11
460634.23000000179
 21
2710644.8900000011
 31
0.0
  0
LINE
  5
3D
  8
4102-Z4
 62
     5
 10
460682.88000000222
 20
2710565.2500000009
 30
0.0
 11
460658.90000000183
 21
2710602.7400000021
 31
0.0
  0
LINE
  5
3E
  8
4102-Z4
 62
     5
 10
460706.43000000197
 20
2710527.060000001
 30
0.0
 11
460682.88000000222
 21
2710565.2500000009
 31
0.0
  0
LINE
  5
3F
  8
4102-Z4
 62
     5
 10
460728.8500000019
 20
2710490.7300000018
 30
0.0
 11
460706.43000000197
 21
2710527.060000001
 31
0.0
  0
LINE
  5
40
  8
4102-Z4
 62
     5
 10
460748.27000000182
 20
2710458.9600000009
 30
0.0
 11
460728.8500000019
 21
2710490.7300000018
 31
0.0
  0
LINE
  5
41
  8
4102-Z4
 62
     5
 10
460765.0000000014
 20
2710430.430000002
 30
0.0
 11
460748.27000000182
 21
2710458.9600000009
 31
0.0
  0
LINE
  5
42
  8
4102-Z4
 62
     5
 10
460816.470000003
 20
2710345.5100000021
 30
0.0
 11
460820.44258021878
 21
2710338.6833330281
 31
0.0
  0
LINE
  5
43
  8
4102-Z4
 62
     5
 10
460788.1000000019
 20
2710390.9200000018
 30
0.0
 11
460816.470000003
 21
2710345.5100000021
 31
0.0
  0
LINE
  5
44
  8
4102-Z4
 62
     5
 10
460764.89000000292
 20
2710430.680000002
 30
0.0
 11
460788.1000000019
 21
2710390.9200000018
 31
0.0
  0
LINE
  5
45
  8
4102-Z4
 62
     5
 10
460910.95000000251
 20
2710185.870000001
 30
0.0
 11
460928.74337225553
 21
2710156.7264942601
 31
0.0
  0
LINE
  5
46
  8
4102-Z4
 62
     5
 10
460886.39000000292
 20
2710227.0000000009
 30
0.0
 11
460910.95000000251
 21
2710185.870000001
 31
0.0
  0
LINE
  5
47
  8
4102-Z4
 62
     5
 10
460854.5800000024
 20
2710280.0200000019
 30
0.0
 11
460886.39000000292
 21
2710227.0000000009
 31
0.0
  0
LINE
  5
48
  8
4102-Z4
 62
     5
 10
460820.44258021878
 20
2710338.6833330281
 30
0.0
 11
460854.5800000024
 21
2710280.0200000019
 31
0.0
  0
LINE
  5
49
  8
4102-Z4
 62
     5
 10
460292.61000000261
 20
2711197.1300000008
 30
0.0
 11
460327.37000000238
 21
2711140.3400000022
 31
0.0
  0
LINE
  5
4A
  8
4102-Z4
 62
     5
 10
460255.02000000281
 20
2711256.3100000019
 30
0.0
 11
460292.61000000261
 21
2711197.1300000008
 31
0.0
  0
LINE
  5
4B
  8
4102-Z4
 62
     5
 10
460225.04000000149
 20
2711304.1500000008
 30
0.0
 11
460255.02000000281
 21
2711256.3100000019
 31
0.0
  0
LINE
  5
4C
  8
4102-Z4
 62
     5
 10
460199.60000000289
 20
2711345.680000002
 30
0.0
 11
460225.04000000149
 21
2711304.1500000008
 31
0.0
  0
LINE
  5
4D
  8
4102-Z4
 62
     5
 10
459580.48299913312
 20
2712304.2466853582
 30
0.0
 11
460199.60000000289
 21
2711345.680000002
 31
0.0
  0
LINE
  5
4E
  8
NEW
 62
     5
 10
461857.83000000328
 20
2708673.7800000021
 30
0.0
 11
461928.81272208341
 21
2708569.7319751401
 31
0.0
  0
LINE
  5
50
  8
NEW
 62
     5
 10
461769.34000000311
 20
2708805.9400000018
 30
0.0
 11
461857.83000000328
 21
2708673.7800000021
 31
0.0
  0
LINE
  5
51
  8
NEW
 62
     5
 10
461720.86000000359
 20
2708880.1000000029
 30
0.0
 11
461769.34000000311
 21
2708805.9400000018
 31
0.0
  0
LINE
  5
52
  8
NEW
 62
     5
 10
461624.98000000272
 20
2709026.870000002
 30
0.0
 11
461720.86000000359
 21
2708880.1000000029
 31
0.0
  0
LINE
  5
53
  8
NEW
 62
     5
 10
461580.98000000278
 20
2709094.5800000038
 30
0.0
 11
461624.98000000272
 21
2709026.870000002
 31
0.0
  0
LINE
  5
54
  8
NEW
 62
     5
 10
461508.00000000332
 20
2709209.1900000018
 30
0.0
 11
461580.98000000278
 21
2709094.5800000038
 31
0.0
  0
LINE
  5
55
  8
NEW
 62
     5
 10
461430.80000000307
 20
2709334.0200000028
 30
0.0
 11
461508.00000000332
 21
2709209.1900000018
 31
0.0
  0
LINE
  5
56
  8
NEW
 62
     5
 10
461386.34000000311
 20
2709405.1300000031
 30
0.0
 11
461430.80000000307
 21
2709334.0200000028
 31
0.0
  0
LINE
  5
57
  8
NEW
 62
     5
 10
461352.970000003
 20
2709459.3800000022
 30
0.0
 11
461386.34000000311
 21
2709405.1300000031
 31
0.0
  0
LINE
  5
58
  8
NEW
 62
     5
 10
461289.06000000279
 20
2709563.970000003
 30
0.0
 11
461352.970000003
 21
2709459.3800000022
 31
0.0
  0
LINE
  5
59
  8
NEW
 62
     5
 10
461266.52000000281
 20
2709601.9200000018
 30
0.0
 11
461289.06000000279
 21
2709563.970000003
 31
0.0
  0
LINE
  5
5A
  8
NEW
 62
     5
 10
461194.78000000259
 20
2709719.5300000012
 30
0.0
 11
461266.52000000281
 21
2709601.9200000018
 31
0.0
  0
LINE
  5
5B
  8
NEW
 62
     5
 10
461194.78000000259
 20
2709719.5300000012
 30
0.0
 11
461194.78000000259
 21
2709719.5300000012
 31
0.0
  0
LINE
  5
5C
  8
NEW
 62
     5
 10
461127.40000000183
 20
2709829.6200000029
 30
0.0
 11
461194.78000000259
 21
2709719.5300000012
 31
0.0
  0
LINE
  5
5D
  8
4102-Z4
 62
     5
 10
461930.55175338167
 20
2708566.2625843529
 30
0.0
 11
462186.78118197771
 21
2708197.521162956
 31
0.0
  0
LINE
  5
5E
  8
BW-TOE
 10
460356.67230836902
 20
2711930.928724342
 30
0.0
 11
460711.83432877471
 21
2712156.576263417
 31
0.0
  0
LINE
  5
61
  8
BW-TOE
 10
460318.3077087925
 20
2711905.3372932831
 30
0.0
 11
460356.67230836902
 21
2711930.928724342
 31
0.0
  0
ARC
  5
62
  8
BW-TOE
 10
460293.13072402921
 20
2711943.0805885592
 30
0.0
 40
45.3700000004632
 50
211.88464695261641
 51
303.70560606993848
  0
LINE
  5
63
  8
BW-TOE
 10
461077.6041312202
 20
2712048.9616509951
 30
0.0
 11
461213.17211235018
 21
2711873.4159009829
 31
0.0
  0
ARC
  5
64
  8
BW-TOE
 10
460871.97549674351
 20
2711891.4934841311
 30
0.0
 40
258.99683181841368
 50
37.44449868293232
 51
121.4867051475363
  0
LINE
  5
65
  8
BW-TOE
 10
460370.2549716038
 20
2711887.9143444039
 30
0.0
 11
460736.70126891171
 21
2712112.3559802161
 31
0.0
  0
LINE
  5
66
  8
BW-TOE
 10
459994.4263428867
 20
2711663.8440903299
 30
0.0
 11
460370.2549716038
 21
2711887.9143444039
 31
0.0
  0
LINE
  5
67
  8
BW-TOE
 10
461238.1962841872
 20
2711840.720872914
 30
0.0
 11
461740.39215768682
 21
2711183.4648363399
 31
0.0
  0
LINE
  5
68
  8
BW-TOE
 10
460316.16644809372
 20
2711855.6665902971
 30
0.0
 11
460351.98076945101
 21
2711798.0940633789
 31
0.0
  0
LINE
  5
69
  8
BW-TOE
 10
460187.81516394718
 20
2711697.907158833
 30
0.0
 11
460150.95224145497
 21
2711757.16534151
 31
0.0
  0
LINE
  5
6A
  8
BW-TOE
 10
460269.54459607753
 20
2711746.8127359338
 30
0.0
 11
460187.81516394718
 21
2711697.907158833
 31
0.0
  0
LINE
  5
6B
  8
BW-TOE
 10
460351.98076945101
 20
2711798.0940633789
 30
0.0
 11
460269.54459607753
 21
2711746.8127359338
 31
0.0
  0
LINE
  5
6C
  8
BW-TOE
 10
462609.90159284871
 20
2710768.324557242
 30
0.0
 11
462623.56797386479
 21
2710745.7377784201
 31
0.0
  0
ARC
  5
6D
  8
BW-TOE
 10
462608.06968947483
 20
2710888.457759249
 30
0.0
 40
90.878542994551594
 50
219.74177713982499
 51
252.5252243642075
  0
ARC
  5
6E
  8
BW-TOE
 10
462590.9187771806
 20
2710863.5672630412
 30
0.0
 40
62.315851812630001
 50
109.30542842480089
 51
212.20447819751661
  0
ARC
  5
6F
  8
BW-TOE
 10
462591.4730454692
 20
2710861.9849964371
 30
0.0
 40
63.992390192946289
 50
26.39314590843447
 51
109.3054268228843
  0
LINE
  5
70
  8
BW-TOE
 10
462681.03506174742
 20
2710794.589552565
 30
0.0
 11
462648.79518528457
 21
2710890.4314072761
 31
0.0
  0
LINE
  5
71
  8
BW-TOE
 10
462609.90159284882
 20
2710768.324557242
 30
0.0
 11
462597.18709660042
 21
2710774.6571384799
 31
0.0
  0
LINE
  5
72
  8
BW-TOE
 10
462580.78014456521
 20
2710801.7733297618
 30
0.0
 11
462597.18709660042
 21
2710774.6571384799
 31
0.0
  0
LINE
  5
73
  8
BW-TOE
 10
462235.03511757858
 20
2710678.7044523451
 30
0.0
 11
462158.27348760172
 21
2710743.966448368
 31
0.0
  0
ARC
  5
74
  8
BW-TOE
 10
462185.34641816642
 20
2710637.7284997269
 30
0.0
 40
64.404934144995977
 50
350.367274449935
 51
39.51081141699742
  0
ARC
  5
75
  8
BW-TOE
 10
462187.33920488681
 20
2710637.3902733871
 30
0.0
 40
62.383648422686839
 50
208.49149700693599
 51
350.36727517812409
  0
ARC
  5
76
  8
BW-TOE
 10
462177.34903034038
 20
2710634.401553086
 30
0.0
 40
52.221519408326799
 50
150.17778316143219
 51
210.8388271371108
  0
LINE
  5
77
  8
BW-TOE
 10
462099.26917862828
 20
2710715.8129084972
 30
0.0
 11
462111.52182518109
 21
2710699.687984331
 31
0.0
  0
LINE
  5
78
  8
BW-TOE
 10
462111.52182518109
 20
2710699.687984331
 30
0.0
 11
462112.78013739688
 21
2710685.539604553
 31
0.0
  0
LINE
  5
79
  8
BW-TOE
 10
462132.04306663608
 20
2710660.371858093
 30
0.0
 11
462112.78013739717
 21
2710685.539604553
 31
0.0
  0
ARC
  5
7A
  8
BW-TOE
 10
463043.05145069008
 20
2709659.7673168639
 30
0.0
 40
34.950563057492118
 50
191.36356617354369
 51
265.3078560169165
  0
ARC
  5
7B
  8
BW-TOE
 10
462871.21568256052
 20
2709260.0967934551
 30
0.0
 40
32.654313991362422
 50
145.99169285848939
 51
226.55239337032529
  0
LINE
  5
7C
  8
BW-TOE
 10
460127.62417122541
 20
2712318.5519033088
 30
0.0
 11
460082.2286032259
 21
2712320.7790452298
 31
0.0
  0
LINE
  5
7D
  8
BW-TOE
 10
460127.62417122541
 20
2712279.186802235
 30
0.0
 11
460079.76975955698
 21
2712282.3496274389
 31
0.0
  0
LINE
  5
7E
  8
BW-TOE
 10
460128.65360622958
 20
2712121.5882781632
 30
0.0
 11
460254.60651582119
 21
2711919.1155665061
 31
0.0
  0
LINE
  5
7F
  8
BW-TOE
 10
460108.2640399076
 20
2712166.264221794
 30
0.0
 11
460128.65360622952
 21
2712121.5882781632
 31
0.0
  0
LINE
  5
80
  8
BW-TOE
 10
460370.94263767259
 20
2711940.3522697669
 30
0.0
 11
460384.76195977972
 21
2711918.137333835
 31
0.0
  0
LINE
  5
81
  8
BW-TOE
 10
460224.71909685299
 20
2711967.1604049122
 30
0.0
 11
460208.58593592938
 21
2711957.1243936401
 31
0.0
  0
LINE
  5
82
  8
BW-TOE
 10
460370.94263767271
 20
2711940.3522697669
 30
0.0
 11
460224.71909685287
 21
2711967.1604049108
 31
0.0
  0
LINE
  5
83
  8
BW-TOE
 10
461238.1962841872
 20
2711840.720872914
 30
0.0
 11
461224.86766941141
 21
2711845.6308655981
 31
0.0
  0
LINE
  5
84
  8
BW-TOE
 10
461213.17211235018
 20
2711873.4159009829
 30
0.0
 11
461214.43042456592
 21
2711859.2675212049
 31
0.0
  0
LINE
  5
85
  8
BW-TOE
 10
461224.86766941141
 20
2711845.6308655981
 30
0.0
 11
461214.43042456632
 21
2711859.2675212049
 31
0.0
  0
LINE
  5
86
  8
BW-TOE
 10
462477.6260858734
 20
2708951.6107792659
 30
0.0
 11
462818.97612567799
 21
2709212.8207356222
 31
0.0
  0
LINE
  5
87
  8
BW-TOE
 10
462445.0583474962
 20
2708926.421169234
 30
0.0
 11
462449.76269472751
 21
2708940.1483231792
 31
0.0
  0
LINE
  5
88
  8
BW-TOE
 10
462477.6260858734
 20
2708951.6107792659
 30
0.0
 11
462463.57287582243
 21
2708950.3477274189
 31
0.0
  0
LINE
  5
89
  8
BW-TOE
 10
462449.98931103142
 20
2708939.8414805322
 30
0.0
 11
462463.5728758226
 21
2708950.3477274189
 31
0.0
  0
ARC
  5
8A
  8
BW-TOE
 10
462472.30486327282
 20
2709664.7356631681
 30
0.0
 40
569.28065978279551
 50
317.11505762041929
 51
355.99084250637719
  0
LINE
  5
8B
  8
BW-TOE
 10
462847.53084902541
 20
2709281.756638973
 30
0.0
 11
462844.09950480598
 21
2709278.407788896
 31
0.0
  0
ARC
  5
8C
  8
BW-TOE
 10
462865.8880542859
 20
2709254.7507648482
 30
0.0
 40
32.654313991362422
 50
43.645150989700973
 51
124.2058515015368
  0
ARC
  5
8D
  8
BW-TOE
 10
462466.5090253331
 20
2709668.5267309071
 30
0.0
 40
576.10850624152943
 50
1.4516568495240161
 51
14.0597707461431
  0
LINE
  5
8E
  8
BW-TOE
 10
462993.59953756689
 20
2709688.6200730391
 30
0.0
 11
462993.4150810354
 21
2709683.828946264
 31
0.0
  0
ARC
  5
8F
  8
BW-TOE
 10
463042.605013402
 20
2709648.1714268918
 30
0.0
 40
34.950563057492118
 50
90.282590972965465
 51
164.22688081633819
  0
ARC
  5
90
  8
BW-TOE
 10
460085.0703728752
 20
2712155.6789095742
 30
0.0
 40
25.495000000000001
 50
24.531388902299099
 51
219.23795209703351
  0
ARC
  5
91
  8
BW-TOE
 10
460076.2102213013
 20
2712226.717386758
 30
0.0
 40
94.254000000000005
 50
86.339013350615204
 51
121.88477308554729
  0
LINE
  5
92
  8
BW-TOE
 10
460180.3287526893
 20
2712268.7067978219
 30
0.0
 11
460127.62417122541
 21
2712279.186802235
 31
0.0
  0
ARC
  5
93
  8
BW-TOE
 10
460076.2102213013
 20
2712226.717386758
 30
0.0
 40
55.746000000000002
 50
86.339013350580444
 51
121.88477308554729
  0
LINE
  5
94
  8
BW-TOE
 10
460224.71909684828
 20
2711967.1604049141
 30
0.0
 11
460208.58593592461
 21
2711957.1243936419
 31
0.0
  0
LINE
  5
95
  8
BW-TOE
 10
459980.61393451248
 20
2711685.3577180002
 30
0.0
 11
460208.83266824362
 21
2711837.5929571269
 31
0.0
  0
ARC
  5
96
  8
BW-TOE
 10
460183.65568348038
 20
2711875.336252403
 30
0.0
 40
45.370000000297722
 50
303.70560606960368
 51
31.88464695325273
  0
LINE
  5
97
  8
BW-TOE
 10
460096.38763315842
 20
2712101.5157351652
 30
0.0
 11
460065.32384093321
 21
2712139.55223908
 31
0.0
  0
LINE
  5
98
  8
BW-TOE
 10
460046.76447648788
 20
2712274.0519896229
 30
0.0
 11
459724.04156423861
 21
2712081.977780262
 31
0.0
  0
LINE
  5
99
  8
BW-TOE
 10
460026.4240620858
 20
2712306.7495981888
 30
0.0
 11
459711.15197979152
 21
2712101.934470552
 31
0.0
  0
LINE
  5
9A
  8
BW-TOE
 10
460222.1800585126
 20
2711899.3010062869
 30
0.0
 11
460096.38763315871
 21
2712101.5157351652
 31
0.0
  0
ARC
  5
9B
  8
BW-TOE
 10
460183.65568348608
 20
2711875.3362524011
 30
0.0
 40
45.370000000297722
 50
303.70560606981633
 51
31.884646953465211
  0
LINE
  5
9C
  8
BW-TOE
 10
459980.61393451859
 20
2711685.3577179969
 30
0.0
 11
460208.8326682492
 21
2711837.592957125
 31
0.0
  0
LINE
  5
9D
  8
BW-TOE
 10
460370.94263767288
 20
2711940.3522697669
 30
0.0
 11
460224.71909685328
 21
2711967.1604049122
 31
0.0
  0
LINE
  5
9E
  8
BW-TOE
 10
460224.71909685322
 20
2711967.1604049122
 30
0.0
 11
460208.58593592967
 21
2711957.1243936401
 31
0.0
  0
LINE
  5
9F
  8
BW-TOE
 10
460370.94263767282
 20
2711940.3522697669
 30
0.0
 11
460384.7619597803
 21
2711918.1373338359
 31
0.0
  0
ARC
  5
A0
  8
BW-TOE
 10
460076.21022130537
 20
2712226.7173867552
 30
0.0
 40
55.746000000000002
 50
86.339013355029081
 51
121.8847730857598
  0
ARC
  5
A1
  8
BW-TOE
 10
460185.72999999998
 20
2712295.870000001
 30
0.0
 40
27.695
 50
258.75375283933067
 51
93.855636837414863
  0
LINE
  5
A2
  8
BW-TOE
 10
460183.86771120469
 20
2712323.502316325
 30
0.0
 11
460127.62417122541
 21
2712318.5519033088
 31
0.0
  0
ARC
  5
A3
  8
BW-TOE
 10
460076.21022130537
 20
2712226.7173867552
 30
0.0
 40
94.254000000000005
 50
86.339013353175716
 51
121.8847730857598
  0
LINE
  5
A4
  8
BW-TOE
 10
460026.42406208959
 20
2712306.749598186
 30
0.0
 11
459711.15197979612
 21
2712101.9344705492
 31
0.0
  0
LINE
  5
A5
  8
BW-TOE
 10
460046.76447649201
 20
2712274.0519896201
 30
0.0
 11
459724.04156424332
 21
2712081.9777802578
 31
0.0
  0
LINE
  5
A6
  8
BW-TOE
 10
461948.8998314371
 20
2708539.8577470211
 30
0.0
 11
462445.0583474962
 21
2708926.421169234
 31
0.0
  0
LINE
  5
A7
  8
BW-TOE
 10
461961.39602942858
 20
2708521.874387987
 30
0.0
 11
462835.29269378941
 21
2709140.0945469108
 31
0.0
  0
LINE
  5
A8
  8
BW-TOE
 10
461132.47212230507
 20
2712069.4190314501
 30
0.0
 11
461791.16820033599
 21
2711222.4237055848
 31
0.0
  0
ARC
  5
A9
  8
BW-TOE
 10
460877.1419688827
 20
2711891.3921586298
 30
0.0
 40
312.49409207509842
 50
37.799379479348168
 51
122.2235943539777
  0
LINE
  5
AA
  8
BW-TOE
 10
462099.26917862811
 20
2710715.8129084972
 30
0.0
 11
461740.3921576867
 21
2711183.4648363399
 31
0.0
  0
LINE
  5
AB
  8
BW-TOE
 10
462158.27348760102
 20
2710743.9664483699
 30
0.0
 11
461791.16820033622
 21
2711222.4237055848
 31
0.0
  0
ARC
  5
AC
  8
BW-TOE
 10
458895.3617903819
 20
2708636.4477574518
 30
0.0
 40
4357.6252852089683
 50
15.886193488655611
 51
29.68665881906955
  0
ARC
  5
AD
  8
BW-TOE
 10
459418.85852965899
 20
2708817.164367409
 30
0.0
 40
3740.261758679675
 50
15.369325091264081
 51
31.039256846549371
  0
ARC
  5
AE
  8
BW-TOE
 10
462466.5090253331
 20
2709668.5267309071
 30
0.0
 40
576.10850624152943
 50
307.72026117345968
 51
311.37006614675232
  0
ARC
  5
AF
  8
BW-TOE
 10
462463.13446251868
 20
2709666.1657728772
 30
0.0
 40
644.40102722852748
 50
305.27670945366339
 51
14.65972429005606
  0
LINE
  5
B0
  8
4101-Z4
 62
     5
 10
460327.37000000261
 20
2711140.3400000022
 30
0.0
 11
460437.29610901233
 21
2710965.285725716
 31
0.0
  0
ENDSEC
  0
EOF
